<svg viewBox="0 0 62.875 62.061" xmlns="http://www.w3.org/2000/svg"><g stroke-width=".684"><path fill="#4ca29f" stroke="#4ca29f" d="M11.363 10.573h51.17V61.72h-51.17z"/><path fill="#46b494" stroke="#46b494" d="M6.16 5.247h51.168v51.147H6.16z"/><path fill="#4acfac" stroke="#4acfac" d="M.343.342H51.51v51.147H.343z"/></g><path d="m173.27 569.41 27.773-111.14h24l6.82 54.562 27.281-54.562h32.86l-27.798 111.14H238.94l10.102-40.406-20.203 40.406h-15.164l-5.039-40.406-10.125 40.406z" transform="translate(-43.724 -128.35) scale(.30118)" fill="#7a74e8" style="shape-inside:url(#rect75743);white-space:pre" aria-label="M"/><path d="m173.27 569.41 27.773-111.14h24l6.82 54.562 27.281-54.562h32.86l-27.798 111.14H238.94l10.102-40.406-20.203 40.406h-15.164l-5.039-40.406-10.125 40.406z" transform="translate(-44.556 -129.34) scale(.30118)" fill="#7e8ce0" style="shape-inside:url(#rect75745);white-space:pre" aria-label="M"/><path d="m173.27 569.41 27.773-111.14h24l6.82 54.562 27.281-54.562h32.86l-27.798 111.14H238.94l10.102-40.406-20.203 40.406h-15.164l-5.039-40.406-10.125 40.406z" transform="translate(-43.724 -128.35) scale(.30118)" fill="#7a74e8" style="shape-inside:url(#rect75743);white-space:pre" aria-label="M"/><path d="m173.27 569.41 27.773-111.14h24l6.82 54.562 27.281-54.562h32.86l-27.798 111.14H238.94l10.102-40.406-20.203 40.406h-15.164l-5.039-40.406-10.125 40.406z" transform="translate(-44.556 -129.34) scale(.30118)" fill="#7e8ce0" style="shape-inside:url(#rect75745);white-space:pre" aria-label="M"/></svg>
